<svg width="138" height="116" viewBox="0 0 138 116" fill="none" xmlns="http://www.w3.org/2000/svg"><path d="M22.536 89.056C22.376 88.992 22.1893 88.9013 21.976 88.784C21.7627 88.6773 21.56 88.5333 21.368 88.352C21.176 88.1707 21.0267 87.952 20.92 87.696C20.8133 87.3867 20.7387 87.0827 20.696 86.784C20.664 86.4853 20.6533 86.1387 20.664 85.744C20.664 85.1893 20.7013 84.7093 20.776 84.304C20.8613 83.888 20.9893 83.4667 21.16 83.04C21.1813 83.008 21.2187 82.9173 21.272 82.768C21.336 82.608 21.4053 82.4373 21.48 82.256C21.5653 82.0747 21.6293 81.936 21.672 81.84C21.7573 81.6587 21.8853 81.4187 22.056 81.12C22.2373 80.8107 22.4293 80.512 22.632 80.224C22.9413 79.7653 23.2027 79.392 23.416 79.104C23.6293 78.8053 23.832 78.5547 24.024 78.352C24.2267 78.1493 24.4453 77.952 24.68 77.76C24.9253 77.568 25.2293 77.3493 25.592 77.104C25.8267 76.9333 26.1253 76.8267 26.488 76.784C26.8613 76.7413 27.224 76.8 27.576 76.96C27.928 77.1093 28.1893 77.3973 28.36 77.824C28.4773 78.048 28.5307 78.3307 28.52 78.672C28.5093 79.0027 28.4453 79.36 28.328 79.744C28.2107 80.1173 28.0613 80.4693 27.88 80.8C27.6987 81.1307 27.496 81.3973 27.272 81.6C27.1333 81.728 26.9467 81.7493 26.712 81.664C26.488 81.5787 26.3013 81.4667 26.152 81.328C26.056 81.1467 26.0027 81.04 25.992 81.008C25.992 80.976 26.0133 80.9547 26.056 80.944C26.12 80.8693 26.2053 80.7413 26.312 80.56C26.4187 80.3787 26.5253 80.1867 26.632 79.984C26.7387 79.7707 26.8133 79.6 26.856 79.472C26.9413 79.024 27 78.7307 27.032 78.592C27.064 78.4427 27.032 78.32 26.936 78.224C26.8933 78.1813 26.8293 78.1653 26.744 78.176C26.6693 78.1867 26.5413 78.24 26.36 78.336C26.1147 78.4427 25.8213 78.6613 25.48 78.992C25.1493 79.312 24.8187 79.696 24.488 80.144C24.0613 80.7093 23.704 81.2107 23.416 81.648C23.128 82.0853 22.9093 82.5333 22.76 82.992C22.7387 83.0347 22.7013 83.1147 22.648 83.232C22.6053 83.3493 22.584 83.408 22.584 83.408C22.5947 83.4507 22.5787 83.5573 22.536 83.728C22.4933 83.888 22.4453 84.0267 22.392 84.144C22.2747 84.6347 22.2053 85.1093 22.184 85.568C22.1627 86.016 22.1893 86.4107 22.264 86.752C22.3493 87.0827 22.472 87.328 22.632 87.488C22.7707 87.584 22.9467 87.616 23.16 87.584C23.3733 87.552 23.6187 87.4773 23.896 87.36C24.1733 87.2427 24.472 87.1147 24.792 86.976C25.048 86.8693 25.2827 86.752 25.496 86.624C25.7093 86.496 25.8693 86.384 25.976 86.288C26.0613 86.224 26.168 86.16 26.296 86.096C26.4347 86.0213 26.552 85.984 26.648 85.984C26.7973 85.9307 26.9093 85.9733 26.984 86.112C27.0587 86.2507 27.096 86.4267 27.096 86.64C27.096 86.7893 26.9893 86.9707 26.776 87.184C26.5627 87.3973 26.328 87.5787 26.072 87.728C25.9867 87.8133 25.8693 87.8933 25.72 87.968C25.5813 88.032 25.4373 88.0907 25.288 88.144C25.064 88.3147 24.7867 88.48 24.456 88.64C24.1253 88.8 23.7893 88.9227 23.448 89.008C23.1173 89.0933 22.8133 89.1093 22.536 89.056ZM29.313 87.888C29.1743 87.888 29.0623 87.8613 28.977 87.808C28.9023 87.7547 28.8063 87.68 28.689 87.584C28.4863 87.3707 28.321 87.1413 28.193 86.896C28.0757 86.6507 28.033 86.4373 28.065 86.256C28.097 86.1707 28.1077 86.0907 28.097 86.016C28.097 85.9307 28.097 85.888 28.097 85.888C28.0437 85.8347 28.0277 85.8027 28.049 85.792C28.0703 85.7707 28.0917 85.7387 28.113 85.696C28.177 85.696 28.1983 85.6373 28.177 85.52C28.1557 85.4347 28.1877 85.2533 28.273 84.976C28.369 84.688 28.497 84.416 28.657 84.16C28.721 84.0533 28.817 83.9147 28.945 83.744C29.073 83.5627 29.2117 83.3867 29.361 83.216C29.521 83.0347 29.665 82.8907 29.793 82.784C30.0597 82.56 30.305 82.3787 30.529 82.24C30.7637 82.1013 30.9983 82.0053 31.233 81.952C31.4677 81.8987 31.7077 81.872 31.953 81.872C32.209 81.872 32.417 81.9573 32.577 82.128C32.8223 82.2347 32.993 82.3787 33.089 82.56C33.1957 82.7413 33.265 82.976 33.297 83.264C33.329 83.584 33.297 83.9787 33.201 84.448C33.105 84.9067 32.8437 85.44 32.417 86.048C32.1503 86.432 31.889 86.7307 31.633 86.944C31.377 87.1573 31.0943 87.3547 30.785 87.536C30.561 87.6853 30.321 87.776 30.065 87.808C29.809 87.84 29.5583 87.8667 29.313 87.888ZM30.945 85.936C31.1797 85.7333 31.345 85.5093 31.441 85.264C31.5477 85.0187 31.6597 84.7307 31.777 84.4C31.8197 84.336 31.8463 84.2293 31.857 84.08C31.8783 83.9307 31.8837 83.7867 31.873 83.648C31.8623 83.4987 31.825 83.4133 31.761 83.392C31.665 83.3173 31.569 83.3013 31.473 83.344C31.377 83.376 31.2543 83.4453 31.105 83.552C30.785 83.8187 30.4863 84.128 30.209 84.48C29.9423 84.8213 29.7557 85.2427 29.649 85.744C29.617 86.0107 29.6437 86.2133 29.729 86.352C29.825 86.48 29.9743 86.5173 30.177 86.464C30.3903 86.4 30.6463 86.224 30.945 85.936ZM39.5099 87.616C39.2752 87.5947 39.0779 87.5467 38.9179 87.472C38.7685 87.3867 38.6459 87.2213 38.5499 86.976C38.5072 86.8053 38.4859 86.6293 38.4859 86.448C38.4965 86.256 38.5125 86.0747 38.5339 85.904C38.5552 85.7227 38.5659 85.568 38.5659 85.44C38.5659 85.4187 38.5659 85.376 38.5659 85.312C38.5659 85.248 38.5659 85.1893 38.5659 85.136C38.5445 84.976 38.5019 84.88 38.4379 84.848C38.3845 84.8053 38.2885 84.8107 38.1499 84.864C37.9259 84.9707 37.6805 85.1147 37.4139 85.296C37.1579 85.4667 36.8859 85.6693 36.5979 85.904C36.3205 86.128 36.0325 86.368 35.7339 86.624C35.4992 86.88 35.3232 87.088 35.2059 87.248C35.0992 87.408 34.9872 87.488 34.8699 87.488C34.7845 87.5307 34.6939 87.52 34.5979 87.456C34.5019 87.392 34.4005 87.3173 34.2939 87.232C34.2192 87.1467 34.1285 87.04 34.0219 86.912C33.9259 86.7733 33.8672 86.6827 33.8459 86.64C33.8459 86.4693 33.8565 86.3147 33.8779 86.176C33.9099 86.0373 33.9525 85.8933 34.0059 85.744C34.0699 85.5947 34.1445 85.424 34.2299 85.232C34.2725 85.1573 34.3099 85.0827 34.3419 85.008C34.3845 84.9227 34.4325 84.832 34.4859 84.736C34.5285 84.5867 34.5872 84.416 34.6619 84.224C34.7472 84.032 34.8272 83.8507 34.9019 83.68C35.0192 83.4027 35.1099 83.1627 35.1739 82.96C35.2379 82.7573 35.2912 82.5387 35.3339 82.304C35.3232 82.2827 35.3285 82.2507 35.3499 82.208C35.3712 82.1653 35.4032 82.1387 35.4459 82.128H35.4619H35.4779C35.5525 82.0747 35.6912 82.0693 35.8939 82.112C36.1072 82.144 36.2672 82.2027 36.3739 82.288C36.5979 82.48 36.7045 82.7307 36.6939 83.04C36.6832 83.3493 36.5232 83.7547 36.2139 84.256C36.1392 84.4267 36.0592 84.5867 35.9739 84.736C35.8992 84.8747 35.8619 84.9707 35.8619 85.024C35.8619 85.024 35.9045 84.992 35.9899 84.928C36.0752 84.864 36.1765 84.7893 36.2939 84.704C36.4112 84.608 36.5125 84.5333 36.5979 84.48C36.6512 84.4267 36.7685 84.3307 36.9499 84.192C37.1312 84.0427 37.3285 83.888 37.5419 83.728C37.7552 83.568 37.9259 83.4453 38.0539 83.36C38.1712 83.2747 38.3205 83.1893 38.5019 83.104C38.6832 83.008 38.7952 82.96 38.8379 82.96C38.9445 82.96 39.0725 82.9973 39.2219 83.072C39.3819 83.1467 39.5259 83.2373 39.6539 83.344C39.7925 83.44 39.8725 83.5307 39.8939 83.616C39.8939 83.6587 39.8885 83.7173 39.8779 83.792C39.8672 83.856 39.8619 83.9147 39.8619 83.968C39.8512 84.1387 39.8459 84.3467 39.8459 84.592C39.8565 84.8267 39.8619 85.0667 39.8619 85.312C39.8619 85.5467 39.8405 85.76 39.7979 85.952C39.7979 85.952 39.8032 85.9627 39.8139 85.984C39.8245 85.9947 39.8352 86.016 39.8459 86.048C39.8352 86.0587 39.8299 86.08 39.8299 86.112C39.8405 86.1333 39.8459 86.144 39.8459 86.144C39.8672 86.2187 39.8885 86.2933 39.9099 86.368C39.9419 86.4427 39.9792 86.528 40.0219 86.624C40.0645 86.7093 40.1125 86.8213 40.1659 86.96C40.1552 87.0987 40.0752 87.2373 39.9259 87.376C39.7872 87.504 39.6485 87.584 39.5099 87.616ZM43.2856 87.584C43.179 87.6587 43.0456 87.7013 42.8856 87.712C42.7363 87.712 42.603 87.6533 42.4856 87.536C42.283 87.344 42.107 86.9653 41.9576 86.4C41.8083 85.824 41.7336 85.0453 41.7336 84.064C41.7763 83.6267 41.7976 83.2213 41.7976 82.848C41.8083 82.4747 41.8136 82.2667 41.8136 82.224C41.931 82.1493 42.0803 82.128 42.2616 82.16C42.4536 82.1813 42.6083 82.2187 42.7256 82.272C42.8323 82.3253 42.907 82.4053 42.9496 82.512C43.003 82.6187 43.035 82.8107 43.0456 83.088C43.067 83.3547 43.0776 83.7653 43.0776 84.32C43.0456 84.7467 43.0243 85.088 43.0136 85.344C43.003 85.6 43.0136 85.7493 43.0456 85.792C43.0883 85.8667 43.1096 85.9093 43.1096 85.92C43.1096 85.92 43.1896 85.84 43.3496 85.68C43.435 85.5627 43.5256 85.408 43.6216 85.216C43.7283 85.024 43.819 84.8693 43.8936 84.752C44.011 84.6027 44.1176 84.4587 44.2136 84.32C44.3203 84.1813 44.395 84.0907 44.4376 84.048C44.4803 83.9627 44.5336 83.8827 44.5976 83.808C44.6616 83.7333 44.715 83.6587 44.7576 83.584C44.875 83.3813 44.9976 83.216 45.1256 83.088C45.2536 82.9493 45.339 82.88 45.3816 82.88C45.4243 82.912 45.5043 82.9067 45.6216 82.864C45.739 82.8107 45.819 82.784 45.8616 82.784C45.9363 82.7093 46.0376 82.7093 46.1656 82.784C46.2083 82.816 46.2456 82.8533 46.2776 82.896C46.3096 82.928 46.3256 82.9653 46.3256 83.008C46.3256 83.0613 46.2936 83.1947 46.2296 83.408C46.1763 83.6107 46.107 83.8133 46.0216 84.016C45.947 84.208 45.883 84.32 45.8296 84.352C45.8296 84.352 45.8136 84.368 45.7816 84.4C45.7496 84.432 45.7123 84.4693 45.6696 84.512C45.6483 84.5867 45.5736 84.7253 45.4456 84.928C45.3283 85.12 45.179 85.344 44.9976 85.6C44.827 85.8453 44.651 86.0907 44.4696 86.336C44.2883 86.5707 44.1283 86.7787 43.9896 86.96C43.883 87.1093 43.7603 87.2427 43.6216 87.36C43.483 87.4667 43.371 87.5413 43.2856 87.584ZM48.2785 88.288C47.6918 88.288 47.2385 88.1173 46.9185 87.776C46.6092 87.4347 46.4545 86.912 46.4545 86.208C46.4545 85.824 46.5238 85.4027 46.6625 84.944C46.8118 84.4853 47.0038 84.0373 47.2385 83.6C47.4838 83.1627 47.7505 82.784 48.0385 82.464C48.3265 82.1333 48.6145 81.904 48.9025 81.776C49.0092 81.7227 49.1212 81.6853 49.2385 81.664C49.3665 81.632 49.4892 81.616 49.6065 81.616C49.7345 81.616 49.8732 81.6267 50.0225 81.648C50.1825 81.6587 50.3318 81.6907 50.4705 81.744C50.7158 81.8187 50.9292 81.9627 51.1105 82.176C51.3025 82.3893 51.3985 82.6987 51.3985 83.104C51.3985 83.2107 51.3878 83.328 51.3665 83.456C51.3452 83.5733 51.3078 83.6907 51.2545 83.808C51.1158 84.16 50.9025 84.496 50.6145 84.816C50.3372 85.136 50.0438 85.36 49.7345 85.488C49.6492 85.5307 49.5638 85.5627 49.4785 85.584C49.4038 85.5947 49.3238 85.6 49.2385 85.6C49.0145 85.6 48.8118 85.568 48.6305 85.504C48.4598 85.44 48.2998 85.3547 48.1505 85.248L48.0225 85.136L47.9425 85.296C47.8678 85.4987 47.8145 85.6693 47.7825 85.808C47.7612 85.9467 47.7505 86.048 47.7505 86.112C47.7505 86.24 47.7558 86.3733 47.7665 86.512C47.7772 86.64 47.8092 86.7467 47.8625 86.832C47.9052 86.8853 47.9585 86.928 48.0225 86.96C48.0972 86.992 48.1878 87.008 48.2945 87.008C48.3585 87.008 48.4172 87.008 48.4705 87.008C48.5345 86.9973 48.5878 86.9867 48.6305 86.976C48.8225 86.9333 48.9772 86.864 49.0945 86.768C49.2225 86.6613 49.3558 86.5707 49.4945 86.496L49.5585 86.464L49.5425 86.416C49.7238 86.32 49.8465 86.2613 49.9105 86.24C49.9745 86.208 50.0225 86.1813 50.0545 86.16C50.0972 86.1173 50.1452 86.096 50.1985 86.096C50.3478 86.0747 50.4918 86.1173 50.6305 86.224C50.7798 86.32 50.8545 86.4427 50.8545 86.592C50.8545 86.656 50.8065 86.7573 50.7105 86.896C50.6252 87.0347 50.5132 87.1733 50.3745 87.312C50.2465 87.44 50.1132 87.5413 49.9745 87.616C49.9425 87.6267 49.9105 87.6427 49.8785 87.664C49.8465 87.6747 49.8145 87.6907 49.7825 87.712H49.7985C49.7025 87.84 49.6065 87.904 49.5105 87.904H49.3825C49.3398 87.9787 49.2012 88.0587 48.9665 88.144C48.7318 88.24 48.5025 88.288 48.2785 88.288ZM49.1105 84.432C49.2065 84.432 49.2918 84.416 49.3665 84.384C49.4518 84.352 49.5318 84.3147 49.6065 84.272C49.8625 84.0907 50.0278 83.856 50.1025 83.568C50.1772 83.28 50.1505 83.0613 50.0225 82.912C50.0012 82.88 49.9745 82.8587 49.9425 82.848C49.9105 82.8267 49.8732 82.816 49.8305 82.816C49.7132 82.816 49.5798 82.8533 49.4305 82.928C49.2918 83.0027 49.1532 83.1093 49.0145 83.248C48.8758 83.3867 48.7478 83.552 48.6305 83.744L48.4225 84.08C48.4438 84.0693 48.4598 84.064 48.4705 84.064C48.4918 84.0533 48.5078 84.048 48.5185 84.048C48.6145 84.048 48.6785 84.08 48.7105 84.144C48.7425 84.208 48.7798 84.272 48.8225 84.336C48.8758 84.4 48.9718 84.432 49.1105 84.432ZM52.8383 87.456C52.7956 87.456 52.6943 87.4187 52.5343 87.344C52.3743 87.2587 52.2729 87.1947 52.2303 87.152C52.1556 87.0667 52.1076 86.976 52.0863 86.88C52.0649 86.7733 52.0543 86.5707 52.0543 86.272C52.0543 85.9307 52.1236 85.5467 52.2623 85.12C52.4009 84.6827 52.6356 84.1013 52.9663 83.376L53.6223 82.048C53.6756 81.9733 53.7236 81.9093 53.7663 81.856C53.8089 81.792 53.8569 81.7333 53.9103 81.68C53.9316 81.68 53.9583 81.68 53.9903 81.68C54.0329 81.68 54.0649 81.6853 54.0863 81.696C54.1823 81.7067 54.3316 81.7653 54.5343 81.872C54.7476 81.9787 54.8756 82.1387 54.9183 82.352C54.9183 82.4907 54.8969 82.656 54.8543 82.848C54.8116 83.0293 54.6836 83.2693 54.4703 83.568C54.3849 83.6747 54.2996 83.8293 54.2143 84.032C54.1396 84.2347 54.0703 84.4267 54.0063 84.608C53.9956 84.6293 53.9636 84.6827 53.9103 84.768C53.8676 84.8427 53.8249 84.9227 53.7823 85.008C53.7396 85.0827 53.7183 85.1307 53.7183 85.152L53.6543 85.296L54.3423 84.624C54.8223 84.144 55.2276 83.8027 55.5583 83.6C55.8889 83.3973 56.1663 83.312 56.3903 83.344C56.6249 83.376 56.8116 83.5093 56.9503 83.744C57.0249 83.8507 57.0783 83.968 57.1103 84.096C57.1423 84.2133 57.1636 84.352 57.1743 84.512C57.1849 84.672 57.1796 84.8747 57.1583 85.12V86.032C57.3609 85.9787 57.5156 85.936 57.6223 85.904C57.7289 85.8613 57.8356 85.824 57.9423 85.792C58.0276 85.7707 58.1129 85.7493 58.1983 85.728C58.2943 85.7067 58.4116 85.6907 58.5503 85.68C58.5396 85.8187 58.4809 85.9893 58.3743 86.192C58.2676 86.3947 58.1343 86.5973 57.9743 86.8C57.8249 87.0027 57.6596 87.1733 57.4783 87.312C57.3076 87.4507 57.1476 87.52 56.9983 87.52C56.8596 87.52 56.6996 87.4773 56.5183 87.392C56.3369 87.296 56.1823 87.1147 56.0543 86.848C56.0116 86.7093 55.9689 86.5493 55.9263 86.368C55.8836 86.1867 55.8623 85.9947 55.8623 85.792V85.088C55.8623 85.024 55.8569 84.9813 55.8463 84.96C55.8463 84.928 55.8409 84.912 55.8303 84.912C55.7876 84.912 55.6489 85.024 55.4143 85.248C55.1903 85.472 54.9609 85.7067 54.7263 85.952C54.2356 86.464 53.8249 86.8427 53.4943 87.088C53.1743 87.3333 52.9556 87.456 52.8383 87.456ZM59.846 87.472C59.8033 87.472 59.7127 87.44 59.574 87.376C59.4353 87.312 59.366 87.28 59.366 87.28C59.366 87.2373 59.35 87.184 59.318 87.12C59.2967 87.056 59.286 87.0027 59.286 86.96C59.2113 86.9173 59.1367 86.848 59.062 86.752C58.9873 86.656 58.9713 86.5493 59.014 86.432C59.078 86.3147 59.1633 86.1387 59.27 85.904C59.3873 85.6587 59.51 85.3867 59.638 85.088C59.7767 84.7787 59.9047 84.48 60.022 84.192C60.1393 83.904 60.2407 83.6587 60.326 83.456C60.4113 83.2427 60.4593 83.1147 60.47 83.072C60.47 83.0293 60.4753 82.9547 60.486 82.848C60.5073 82.7413 60.5767 82.6507 60.694 82.576C60.8327 82.48 60.9767 82.4747 61.126 82.56C61.2753 82.6453 61.4033 82.7947 61.51 83.008C61.6167 83.2107 61.67 83.4507 61.67 83.728C61.67 83.8027 61.6167 83.9947 61.51 84.304C61.4033 84.6027 61.2593 84.96 61.078 85.376C60.9073 85.792 60.7153 86.2133 60.502 86.64C60.342 86.9493 60.2193 87.168 60.134 87.296C60.0593 87.4133 59.9633 87.472 59.846 87.472ZM62.022 81.344C61.894 81.344 61.7393 81.2853 61.558 81.168C61.3873 81.0507 61.2327 80.9013 61.094 80.72C60.9553 80.5387 60.886 80.3467 60.886 80.144C60.886 80.0907 60.934 79.9947 61.03 79.856C61.126 79.7067 61.2167 79.5627 61.302 79.424C61.398 79.2853 61.446 79.2053 61.446 79.184C61.5313 79.184 61.6327 79.2 61.75 79.232C61.8673 79.264 61.9633 79.3013 62.038 79.344C62.1553 79.6107 62.31 79.84 62.502 80.032C62.694 80.2133 62.79 80.4213 62.79 80.656C62.79 80.8907 62.7313 81.0667 62.614 81.184C62.4967 81.2907 62.2993 81.344 62.022 81.344ZM65.5786 87.68C65.2586 87.8613 64.9173 87.968 64.5546 88C64.2026 88.0213 63.872 87.9733 63.5626 87.856C63.2533 87.728 63.0026 87.5413 62.8106 87.296C62.704 87.1573 62.6026 86.9387 62.5066 86.64C62.4106 86.3307 62.3946 85.9147 62.4586 85.392C62.5226 84.9013 62.672 84.4053 62.9066 83.904C63.152 83.4027 63.4506 82.96 63.8026 82.576C64.1546 82.192 64.5386 81.9307 64.9546 81.792C65.104 81.7387 65.2533 81.7013 65.4026 81.68C65.5626 81.648 65.7706 81.6427 66.0266 81.664C66.272 81.696 66.4906 81.76 66.6826 81.856C66.8746 81.9413 67.0133 82.0373 67.0986 82.144C67.2693 82.3147 67.3813 82.48 67.4346 82.64C67.488 82.8 67.5093 82.9547 67.4986 83.104C67.4453 83.4453 67.2906 83.8133 67.0346 84.208C66.7893 84.6027 66.4426 84.896 65.9946 85.088C65.8133 85.1627 65.6 85.2107 65.3546 85.232C65.1093 85.2533 64.7733 85.2213 64.3466 85.136C64.0906 85.0827 63.92 85.1093 63.8346 85.216C63.76 85.3227 63.728 85.5307 63.7386 85.84C63.76 86.032 63.8026 86.2027 63.8666 86.352C63.9413 86.4907 64.0746 86.5867 64.2666 86.64C64.512 86.6827 64.688 86.688 64.7946 86.656C64.9013 86.6133 65.0346 86.5547 65.1946 86.48C65.28 86.4267 65.36 86.368 65.4346 86.304C65.52 86.24 65.6 86.176 65.6746 86.112C65.76 86.048 65.8293 86 65.8826 85.968C65.936 85.9253 65.9893 85.8987 66.0426 85.888C66.096 85.8773 66.1493 85.872 66.2026 85.872C66.32 85.8827 66.432 85.9467 66.5386 86.064C66.6453 86.1813 66.7146 86.2933 66.7466 86.4C66.7466 86.4853 66.6933 86.608 66.5866 86.768C66.48 86.9173 66.336 87.0773 66.1546 87.248C65.984 87.408 65.792 87.552 65.5786 87.68ZM65.3706 84.112C65.4453 84.08 65.552 84.0053 65.6906 83.888C65.84 83.7707 65.9733 83.648 66.0906 83.52C66.208 83.3813 66.2666 83.2747 66.2666 83.2C66.2666 83.0827 66.1866 82.9813 66.0266 82.896C65.8773 82.8107 65.68 82.7947 65.4346 82.848C65.3493 82.8693 65.248 82.928 65.1306 83.024C65.0133 83.12 64.896 83.232 64.7786 83.36C64.6613 83.4773 64.56 83.5947 64.4746 83.712C64.3893 83.8187 64.3306 83.904 64.2986 83.968C64.3413 84.0213 64.4266 84.064 64.5546 84.096C64.6826 84.128 64.8213 84.144 64.9706 84.144C65.1306 84.144 65.264 84.1333 65.3706 84.112ZM73.3224 87.616C73.0877 87.5947 72.8904 87.5467 72.7304 87.472C72.581 87.3867 72.4584 87.2213 72.3624 86.976C72.3197 86.8053 72.2984 86.6293 72.2984 86.448C72.309 86.256 72.325 86.0747 72.3464 85.904C72.3677 85.7227 72.3784 85.568 72.3784 85.44C72.3784 85.4187 72.3784 85.376 72.3784 85.312C72.3784 85.248 72.3784 85.1893 72.3784 85.136C72.357 84.976 72.3144 84.88 72.2504 84.848C72.197 84.8053 72.101 84.8107 71.9624 84.864C71.7384 84.9707 71.493 85.1147 71.2264 85.296C70.9704 85.4667 70.6984 85.6693 70.4104 85.904C70.133 86.128 69.845 86.368 69.5464 86.624C69.3117 86.88 69.1357 87.088 69.0184 87.248C68.9117 87.408 68.7997 87.488 68.6824 87.488C68.597 87.5307 68.5064 87.52 68.4104 87.456C68.3144 87.392 68.213 87.3173 68.1064 87.232C68.0317 87.1467 67.941 87.04 67.8344 86.912C67.7384 86.7733 67.6797 86.6827 67.6584 86.64C67.6584 86.4693 67.669 86.3147 67.6904 86.176C67.7224 86.0373 67.765 85.8933 67.8184 85.744C67.8824 85.5947 67.957 85.424 68.0424 85.232C68.085 85.1573 68.1224 85.0827 68.1544 85.008C68.197 84.9227 68.245 84.832 68.2984 84.736C68.341 84.5867 68.3997 84.416 68.4744 84.224C68.5597 84.032 68.6397 83.8507 68.7144 83.68C68.8317 83.4027 68.9224 83.1627 68.9864 82.96C69.0504 82.7573 69.1037 82.5387 69.1464 82.304C69.1357 82.2827 69.141 82.2507 69.1624 82.208C69.1837 82.1653 69.2157 82.1387 69.2584 82.128H69.2744H69.2904C69.365 82.0747 69.5037 82.0693 69.7064 82.112C69.9197 82.144 70.0797 82.2027 70.1864 82.288C70.4104 82.48 70.517 82.7307 70.5064 83.04C70.4957 83.3493 70.3357 83.7547 70.0264 84.256C69.9517 84.4267 69.8717 84.5867 69.7864 84.736C69.7117 84.8747 69.6744 84.9707 69.6744 85.024C69.6744 85.024 69.717 84.992 69.8024 84.928C69.8877 84.864 69.989 84.7893 70.1064 84.704C70.2237 84.608 70.325 84.5333 70.4104 84.48C70.4637 84.4267 70.581 84.3307 70.7624 84.192C70.9437 84.0427 71.141 83.888 71.3544 83.728C71.5677 83.568 71.7384 83.4453 71.8664 83.36C71.9837 83.2747 72.133 83.1893 72.3144 83.104C72.4957 83.008 72.6077 82.96 72.6504 82.96C72.757 82.96 72.885 82.9973 73.0344 83.072C73.1944 83.1467 73.3384 83.2373 73.4664 83.344C73.605 83.44 73.685 83.5307 73.7064 83.616C73.7064 83.6587 73.701 83.7173 73.6904 83.792C73.6797 83.856 73.6744 83.9147 73.6744 83.968C73.6637 84.1387 73.6584 84.3467 73.6584 84.592C73.669 84.8267 73.6744 85.0667 73.6744 85.312C73.6744 85.5467 73.653 85.76 73.6104 85.952C73.6104 85.952 73.6157 85.9627 73.6264 85.984C73.637 85.9947 73.6477 86.016 73.6584 86.048C73.6477 86.0587 73.6424 86.08 73.6424 86.112C73.653 86.1333 73.6584 86.144 73.6584 86.144C73.6797 86.2187 73.701 86.2933 73.7224 86.368C73.7544 86.4427 73.7917 86.528 73.8344 86.624C73.877 86.7093 73.925 86.8213 73.9784 86.96C73.9677 87.0987 73.8877 87.2373 73.7384 87.376C73.5997 87.504 73.461 87.584 73.3224 87.616ZM77.2581 88.096C77.1088 88.0533 76.9595 87.9787 76.8101 87.872C76.6608 87.7653 76.5061 87.6427 76.3461 87.504C76.2181 87.3333 76.1275 87.1787 76.0741 87.04C76.0208 86.8907 75.9888 86.72 75.9781 86.528C75.9781 86.3253 75.9781 86.0693 75.9781 85.76C75.9781 85.632 75.9995 85.4507 76.0421 85.216C76.0955 84.9813 76.1488 84.736 76.2021 84.48C76.2661 84.224 76.3248 84 76.3781 83.808C76.4315 83.6053 76.4635 83.472 76.4741 83.408C76.5061 83.2693 76.4528 83.1893 76.3141 83.168C76.1755 83.1467 76.0208 83.1413 75.8501 83.152C75.6901 83.152 75.5835 83.136 75.5301 83.104C75.4875 83.0933 75.4661 83.04 75.4661 82.944C75.4661 82.8373 75.4661 82.784 75.4661 82.784C75.4661 82.7413 75.4448 82.7147 75.4021 82.704C75.3595 82.6827 75.3221 82.6453 75.2901 82.592C75.2688 82.5493 75.2955 82.4693 75.3701 82.352C75.4448 82.2347 75.5408 82.1653 75.6581 82.144C75.7541 82.1227 75.8981 82.1067 76.0901 82.096C76.2821 82.0747 76.4741 82.0373 76.6661 81.984C76.8688 81.92 77.0235 81.824 77.1301 81.696C77.2261 81.4613 77.3328 81.2107 77.4501 80.944C77.5675 80.6667 77.6795 80.4267 77.7861 80.224C77.8928 80.0107 77.9675 79.8773 78.0101 79.824C78.1915 79.728 78.3781 79.6907 78.5701 79.712C78.7621 79.7227 78.9115 79.8133 79.0181 79.984C79.0715 80.0587 79.1141 80.112 79.1461 80.144C79.1888 80.176 79.2048 80.224 79.1941 80.288C79.1941 80.352 79.1515 80.4693 79.0661 80.64C78.9915 80.8 78.8635 81.0507 78.6821 81.392C78.6288 81.4987 78.5808 81.5947 78.5381 81.68C78.4955 81.7547 78.4741 81.792 78.4741 81.792C78.5168 81.8027 78.5808 81.808 78.6661 81.808C78.7515 81.808 78.8581 81.8027 78.9861 81.792C79.1035 81.7707 79.2315 81.7547 79.3701 81.744C79.5088 81.7227 79.6315 81.7227 79.7381 81.744C79.9835 81.744 80.1648 81.8133 80.2821 81.952C80.3995 82.0907 80.4635 82.2667 80.4741 82.48C80.4955 82.5973 80.4528 82.6987 80.3461 82.784C80.2395 82.8693 80.0421 82.912 79.7541 82.912C79.6581 82.912 79.5195 82.9173 79.3381 82.928C79.1568 82.9387 78.9701 82.9493 78.7781 82.96C78.5861 82.9707 78.4208 82.9867 78.2821 83.008C78.1541 83.0187 78.0901 83.0347 78.0901 83.056C78.0581 83.0773 78.0048 83.1627 77.9301 83.312C77.8661 83.4507 77.7968 83.6213 77.7221 83.824C77.6581 84.0267 77.5995 84.2187 77.5461 84.4C77.4715 84.7627 77.4181 85.1147 77.3861 85.456C77.3541 85.7973 77.3488 86.096 77.3701 86.352C77.4021 86.5973 77.4661 86.7733 77.5621 86.88C77.6581 86.976 77.8021 86.976 77.9941 86.88C78.1968 86.7733 78.3835 86.6507 78.5541 86.512C78.7461 86.352 78.9115 86.304 79.0501 86.368C79.1888 86.4213 79.2741 86.5387 79.3061 86.72C79.3488 86.8907 79.3008 87.0773 79.1621 87.28C79.0341 87.4827 78.8528 87.6533 78.6181 87.792C78.3835 87.9307 78.1435 88.0267 77.8981 88.08C77.6528 88.144 77.4395 88.1493 77.2581 88.096ZM43.226 107.728C43.1833 107.728 43.1193 107.728 43.034 107.728C42.9593 107.739 42.8953 107.696 42.842 107.6C42.7993 107.547 42.7353 107.44 42.65 107.28C42.5647 107.131 42.5487 106.917 42.602 106.64C42.6553 106.459 42.698 106.277 42.73 106.096C42.762 105.925 42.778 105.797 42.778 105.712C42.778 105.669 42.7887 105.584 42.81 105.456C42.842 105.339 42.858 105.253 42.858 105.2C42.9113 105.115 42.954 104.997 42.986 104.848C43.018 104.699 43.034 104.565 43.034 104.448C43.034 104.32 43.098 104.203 43.226 104.096C43.226 104.011 43.242 103.904 43.274 103.776C43.3167 103.648 43.338 103.563 43.338 103.52C43.37 103.371 43.4393 103.109 43.546 102.736C43.6633 102.352 43.802 101.92 43.962 101.44C44.1327 100.96 44.298 100.491 44.458 100.032C44.618 99.5733 44.762 99.184 44.89 98.864C45.018 98.5653 45.1247 98.288 45.21 98.032C45.2953 97.776 45.338 97.5947 45.338 97.488C45.338 97.4453 45.3487 97.4133 45.37 97.392C45.3913 97.36 45.4393 97.3013 45.514 97.216C45.6207 97.1093 45.7593 97.072 45.93 97.104C46.1113 97.1253 46.2607 97.1787 46.378 97.264C46.4633 97.4027 46.522 97.5307 46.554 97.648C46.5967 97.7547 46.5967 97.9253 46.554 98.16C46.554 98.32 46.5167 98.4693 46.442 98.608C46.3673 98.736 46.298 98.8427 46.234 98.928C46.1807 99.0027 46.1647 99.0347 46.186 99.024C46.6553 98.736 47.0767 98.5813 47.45 98.56C47.834 98.528 48.154 98.592 48.41 98.752C48.6767 98.9013 48.8793 99.1093 49.018 99.376C49.1567 99.6427 49.226 99.9307 49.226 100.24C49.226 100.368 49.1833 100.539 49.098 100.752C49.0127 100.965 48.9167 101.168 48.81 101.36C48.7033 101.541 48.618 101.664 48.554 101.728C48.5113 101.728 48.4687 101.765 48.426 101.84C48.3833 101.904 48.3407 101.979 48.298 102.064C48.2127 102.171 48.0687 102.293 47.866 102.432C47.674 102.56 47.4767 102.667 47.274 102.752C47.0713 102.827 46.9273 102.848 46.842 102.816C46.842 102.816 46.826 102.827 46.794 102.848C46.7727 102.869 46.762 102.907 46.762 102.96C46.762 102.981 46.6873 103.024 46.538 103.088C46.3887 103.152 46.2127 103.211 46.01 103.264C45.8073 103.317 45.6207 103.344 45.45 103.344C45.226 103.344 45.066 103.301 44.97 103.216C44.9487 103.237 44.922 103.269 44.89 103.312C44.8687 103.355 44.858 103.392 44.858 103.424C44.858 103.488 44.8313 103.589 44.778 103.728C44.7353 103.867 44.682 103.989 44.618 104.096C44.554 104.213 44.4953 104.272 44.442 104.272C44.442 104.272 44.4313 104.288 44.41 104.32C44.3887 104.352 44.3993 104.395 44.442 104.448C44.442 104.448 44.4367 104.507 44.426 104.624C44.426 104.752 44.3993 104.859 44.346 104.944C44.346 105.029 44.33 105.157 44.298 105.328C44.266 105.499 44.2287 105.627 44.186 105.712C44.186 105.84 44.1647 105.963 44.122 106.08C44.09 106.208 44.0527 106.272 44.01 106.272C43.9673 106.283 43.9407 106.347 43.93 106.464C43.9193 106.592 43.914 106.683 43.914 106.736C43.9033 107.003 43.818 107.232 43.658 107.424C43.498 107.627 43.354 107.728 43.226 107.728ZM45.274 102.128C45.3593 102.128 45.514 102.091 45.738 102.016C45.962 101.941 46.1967 101.851 46.442 101.744C46.6873 101.627 46.8793 101.509 47.018 101.392C47.2953 101.147 47.5087 100.907 47.658 100.672C47.818 100.437 47.8073 100.176 47.626 99.888C47.5407 99.7387 47.402 99.68 47.21 99.712C47.0287 99.7333 46.826 99.8187 46.602 99.968C46.378 100.117 46.1487 100.304 45.914 100.528C45.786 100.667 45.6687 100.827 45.562 101.008C45.4553 101.189 45.3647 101.365 45.29 101.536C45.226 101.707 45.1887 101.851 45.178 101.968C45.1673 102.075 45.1993 102.128 45.274 102.128ZM52.9849 103.68C52.6649 103.861 52.3235 103.968 51.9609 104C51.6089 104.021 51.2782 103.973 50.9689 103.856C50.6595 103.728 50.4089 103.541 50.2169 103.296C50.1102 103.157 50.0089 102.939 49.9129 102.64C49.8169 102.331 49.8009 101.915 49.8649 101.392C49.9289 100.901 50.0782 100.405 50.3129 99.904C50.5582 99.4027 50.8569 98.96 51.2089 98.576C51.5609 98.192 51.9449 97.9307 52.3609 97.792C52.5102 97.7387 52.6595 97.7013 52.8089 97.68C52.9689 97.648 53.1769 97.6427 53.4329 97.664C53.6782 97.696 53.8969 97.76 54.0889 97.856C54.2809 97.9413 54.4195 98.0373 54.5049 98.144C54.6755 98.3147 54.7875 98.48 54.8409 98.64C54.8942 98.8 54.9155 98.9547 54.9049 99.104C54.8515 99.4453 54.6969 99.8133 54.4409 100.208C54.1955 100.603 53.8489 100.896 53.4009 101.088C53.2195 101.163 53.0062 101.211 52.7609 101.232C52.5155 101.253 52.1795 101.221 51.7529 101.136C51.4969 101.083 51.3262 101.109 51.2409 101.216C51.1662 101.323 51.1342 101.531 51.1449 101.84C51.1662 102.032 51.2089 102.203 51.2729 102.352C51.3475 102.491 51.4809 102.587 51.6729 102.64C51.9182 102.683 52.0942 102.688 52.2009 102.656C52.3075 102.613 52.4409 102.555 52.6009 102.48C52.6862 102.427 52.7662 102.368 52.8409 102.304C52.9262 102.24 53.0062 102.176 53.0809 102.112C53.1662 102.048 53.2355 102 53.2889 101.968C53.3422 101.925 53.3955 101.899 53.4489 101.888C53.5022 101.877 53.5555 101.872 53.6089 101.872C53.7262 101.883 53.8382 101.947 53.9449 102.064C54.0515 102.181 54.1209 102.293 54.1529 102.4C54.1529 102.485 54.0995 102.608 53.9929 102.768C53.8862 102.917 53.7422 103.077 53.5609 103.248C53.3902 103.408 53.1982 103.552 52.9849 103.68ZM52.7769 100.112C52.8515 100.08 52.9582 100.005 53.0969 99.888C53.2462 99.7707 53.3795 99.648 53.4969 99.52C53.6142 99.3813 53.6729 99.2747 53.6729 99.2C53.6729 99.0827 53.5929 98.9813 53.4329 98.896C53.2835 98.8107 53.0862 98.7947 52.8409 98.848C52.7555 98.8693 52.6542 98.928 52.5369 99.024C52.4195 99.12 52.3022 99.232 52.1849 99.36C52.0675 99.4773 51.9662 99.5947 51.8809 99.712C51.7955 99.8187 51.7369 99.904 51.7049 99.968C51.7475 100.021 51.8329 100.064 51.9609 100.096C52.0889 100.128 52.2275 100.144 52.3769 100.144C52.5369 100.144 52.6702 100.133 52.7769 100.112ZM56.5206 103.664C56.4886 103.675 56.4193 103.669 56.3126 103.648C56.2166 103.627 56.1153 103.6 56.0086 103.568C55.9126 103.536 55.854 103.509 55.8326 103.488C55.79 103.445 55.7313 103.371 55.6566 103.264C55.582 103.147 55.5393 102.992 55.5286 102.8C55.5286 102.608 55.6193 102.379 55.8006 102.112C55.854 102.005 55.918 101.845 55.9926 101.632C56.0673 101.419 56.142 101.195 56.2166 100.96C56.302 100.715 56.3766 100.496 56.4406 100.304C56.5153 100.112 56.5686 99.9787 56.6006 99.904C56.622 99.7227 56.6113 99.5947 56.5686 99.52C56.5366 99.4347 56.446 99.3867 56.2966 99.376C56.19 99.376 56.1046 99.3387 56.0406 99.264C55.9873 99.1893 55.9606 99.056 55.9606 98.864C55.982 98.7147 56.0193 98.5867 56.0726 98.48C56.1366 98.3627 56.222 98.2667 56.3286 98.192C56.4353 98.1387 56.5686 98.1013 56.7286 98.08C56.8993 98.0587 57.0646 98.0533 57.2246 98.064C57.3846 98.0747 57.4966 98.112 57.5606 98.176C57.6353 98.2187 57.694 98.3147 57.7366 98.464C57.79 98.6027 57.8326 98.7467 57.8646 98.896C57.8966 99.0453 57.918 99.1573 57.9286 99.232C58.0353 99.1467 58.1526 99.0293 58.2806 98.88C58.4193 98.72 58.558 98.5707 58.6966 98.432C58.8673 98.3147 59.07 98.1973 59.3046 98.08C59.5393 97.952 59.71 97.888 59.8166 97.888C59.934 97.888 60.078 97.9467 60.2486 98.064C60.4193 98.1707 60.526 98.2667 60.5686 98.352C60.6753 98.5333 60.75 98.7253 60.7926 98.928C60.846 99.12 60.814 99.2907 60.6966 99.44C60.59 99.5787 60.4406 99.7173 60.2486 99.856C60.0566 99.984 59.8166 100.021 59.5286 99.968C59.4646 99.9467 59.3953 99.8667 59.3206 99.728C59.2566 99.5893 59.2193 99.488 59.2086 99.424C59.2086 99.392 59.1606 99.424 59.0646 99.52C58.9793 99.6053 58.8726 99.712 58.7446 99.84C58.6273 99.968 58.5153 100.085 58.4086 100.192C58.2273 100.416 58.0353 100.72 57.8326 101.104C57.63 101.488 57.39 101.952 57.1126 102.496C56.9846 102.763 56.878 103.019 56.7926 103.264C56.7073 103.499 56.6166 103.632 56.5206 103.664ZM62.5903 104.112C62.0249 104.112 61.6089 103.931 61.3423 103.568C61.2676 103.397 61.2303 103.227 61.2303 103.056C61.2409 102.875 61.2836 102.747 61.3583 102.672C61.4329 102.587 61.5236 102.603 61.6303 102.72C61.7689 102.805 61.9663 102.848 62.2223 102.848C62.3503 102.848 62.4623 102.848 62.5583 102.848C62.6649 102.837 62.7876 102.827 62.9263 102.816C63.1716 102.795 63.3263 102.72 63.3903 102.592C63.4649 102.464 63.4489 102.357 63.3423 102.272H63.3583C63.0703 102.197 62.7876 102.091 62.5103 101.952C62.2329 101.813 61.9983 101.659 61.8063 101.488C61.6143 101.307 61.5023 101.136 61.4703 100.976C61.3849 100.624 61.4063 100.261 61.5343 99.888C61.6623 99.5147 61.8489 99.1893 62.0943 98.912C62.1903 98.848 62.3236 98.7573 62.4943 98.64C62.6649 98.512 62.7876 98.4427 62.8623 98.432V98.448C63.0649 98.2347 63.2943 98.064 63.5503 97.936C63.8063 97.7973 64.1049 97.6693 64.4463 97.552L64.7023 97.52C64.8303 97.4987 64.9423 97.488 65.0383 97.488C65.0276 97.488 65.0543 97.4987 65.1183 97.52C65.1823 97.5413 65.2356 97.5573 65.2783 97.568C65.3423 97.6 65.4063 97.616 65.4703 97.616C65.6196 97.6373 65.7636 97.7173 65.9023 97.856C66.0516 97.984 66.1689 98.1387 66.2543 98.32C66.3503 98.4907 66.3876 98.6507 66.3663 98.8C66.3343 99.0453 66.2436 99.2907 66.0943 99.536C65.9449 99.7707 65.7849 99.904 65.6143 99.936C65.6356 99.9253 65.6143 99.904 65.5503 99.872C65.4863 99.84 65.4276 99.808 65.3743 99.776L65.3103 99.808C65.3103 99.808 65.3049 99.792 65.2943 99.76C65.2943 99.728 65.2836 99.6907 65.2623 99.648C65.2196 99.5733 65.1876 99.4933 65.1663 99.408C65.1556 99.3227 65.1556 99.2267 65.1663 99.12C65.1876 99.0027 65.1929 98.9333 65.1823 98.912C65.1716 98.8907 65.1076 98.8747 64.9903 98.864C64.8516 98.832 64.6756 98.848 64.4623 98.912C64.2489 98.9653 64.0516 99.0613 63.8703 99.2C63.6569 99.3387 63.4969 99.4507 63.3903 99.536C63.2943 99.6213 63.2196 99.7067 63.1663 99.792C63.1129 99.8667 63.0543 99.9787 62.9903 100.128C62.9476 100.203 62.9103 100.272 62.8783 100.336C62.8463 100.389 62.8303 100.443 62.8303 100.496C62.8303 100.603 62.9209 100.715 63.1023 100.832C63.2836 100.939 63.5556 101.067 63.9183 101.216C64.2063 101.333 64.3929 101.493 64.4783 101.696C64.5743 101.899 64.6596 102.091 64.7343 102.272C64.7556 102.315 64.7769 102.395 64.7983 102.512C64.8303 102.619 64.8356 102.683 64.8143 102.704C64.8356 102.725 64.8463 102.747 64.8463 102.768V102.752C64.9316 102.912 64.9156 103.083 64.7983 103.264C64.6916 103.435 64.5209 103.595 64.2863 103.744C64.0516 103.883 63.7849 103.984 63.4863 104.048H63.5023C63.3423 104.069 63.1823 104.085 63.0223 104.096C62.8729 104.107 62.7289 104.112 62.5903 104.112ZM68.12 103.872C67.896 103.915 67.7253 103.904 67.608 103.84C67.5013 103.765 67.3893 103.675 67.272 103.568C67.1013 103.483 66.9467 103.365 66.808 103.216C66.6693 103.056 66.5627 102.891 66.488 102.72C66.4133 102.549 66.3813 102.416 66.392 102.32C66.424 101.947 66.5093 101.541 66.648 101.104C66.7973 100.667 66.984 100.24 67.208 99.824C67.4427 99.408 67.704 99.04 67.992 98.72C68.2907 98.3893 68.6107 98.1493 68.952 98C69.1653 97.9147 69.3947 97.8827 69.64 97.904C69.8853 97.9253 70.0507 98.0267 70.136 98.208C70.296 98.5173 70.2587 98.7147 70.024 98.8C69.992 98.8 69.9547 98.816 69.912 98.848C69.8693 98.8693 69.848 98.9013 69.848 98.944C69.8907 98.9653 70.008 98.9707 70.2 98.96C70.392 98.9387 70.584 98.9067 70.776 98.864C70.9787 98.8107 71.112 98.7573 71.176 98.704C71.24 98.672 71.288 98.656 71.32 98.656C71.352 98.656 71.432 98.6667 71.56 98.688C71.7413 98.7413 71.832 98.8053 71.832 98.88C71.832 98.9227 71.848 98.992 71.88 99.088C71.912 99.1733 71.9493 99.216 71.992 99.216C72.0667 99.2267 72.0827 99.3013 72.04 99.44C72.008 99.5787 71.8853 99.7227 71.672 99.872C71.4693 100 71.3413 100.085 71.288 100.128C71.2453 100.16 71.24 100.235 71.272 100.352C71.3573 100.555 71.352 100.8 71.256 101.088C71.16 101.376 71 101.675 70.776 101.984C70.552 102.293 70.2853 102.587 69.976 102.864C69.6773 103.131 69.3627 103.36 69.032 103.552C68.712 103.733 68.408 103.84 68.12 103.872ZM68.168 102.528C68.2107 102.528 68.2853 102.507 68.392 102.464C68.4987 102.411 68.584 102.368 68.648 102.336C68.6907 102.293 68.744 102.245 68.808 102.192C68.8827 102.128 68.9413 102.091 68.984 102.08C69.0267 102.08 69.0533 102.064 69.064 102.032C69.0747 101.989 69.112 101.909 69.176 101.792C69.24 101.664 69.368 101.477 69.56 101.232C69.7733 100.997 69.912 100.811 69.976 100.672C70.04 100.523 70.0453 100.363 69.992 100.192C69.9813 100.149 69.9493 100.123 69.896 100.112C69.8533 100.101 69.7947 100.075 69.72 100.032C69.6133 100.032 69.5387 100.059 69.496 100.112C69.464 100.155 69.3893 100.128 69.272 100.032L69.016 99.712L68.744 99.984C68.5733 100.155 68.4187 100.368 68.28 100.624C68.152 100.88 68.0507 101.141 67.976 101.408C67.9013 101.675 67.8533 101.909 67.832 102.112C67.8213 102.272 67.848 102.379 67.912 102.432C67.976 102.485 68.0613 102.517 68.168 102.528ZM77.8849 103.616C77.6502 103.595 77.4529 103.547 77.2929 103.472C77.1435 103.387 77.0209 103.221 76.9249 102.976C76.8822 102.805 76.8609 102.629 76.8609 102.448C76.8715 102.256 76.8875 102.075 76.9089 101.904C76.9302 101.723 76.9409 101.568 76.9409 101.44C76.9409 101.419 76.9409 101.376 76.9409 101.312C76.9409 101.248 76.9409 101.189 76.9409 101.136C76.9195 100.976 76.8769 100.88 76.8129 100.848C76.7595 100.805 76.6635 100.811 76.5249 100.864C76.3009 100.971 76.0555 101.115 75.7889 101.296C75.5329 101.467 75.2609 101.669 74.9729 101.904C74.6955 102.128 74.4075 102.368 74.1089 102.624C73.8742 102.88 73.6982 103.088 73.5809 103.248C73.4742 103.408 73.3622 103.488 73.2449 103.488C73.1595 103.531 73.0689 103.52 72.9729 103.456C72.8769 103.392 72.7755 103.317 72.6689 103.232C72.5942 103.147 72.5035 103.04 72.3969 102.912C72.3009 102.773 72.2422 102.683 72.2209 102.64C72.2209 102.469 72.2315 102.315 72.2529 102.176C72.2849 102.037 72.3275 101.893 72.3809 101.744C72.4449 101.595 72.5195 101.424 72.6049 101.232C72.6475 101.157 72.6849 101.083 72.7169 101.008C72.7595 100.923 72.8075 100.832 72.8609 100.736C72.9035 100.587 72.9622 100.416 73.0369 100.224C73.1222 100.032 73.2022 99.8507 73.2769 99.68C73.3942 99.4027 73.4849 99.1627 73.5489 98.96C73.6129 98.7573 73.6662 98.5387 73.7089 98.304C73.6982 98.2827 73.7035 98.2507 73.7249 98.208C73.7462 98.1653 73.7782 98.1387 73.8209 98.128H73.8369H73.8529C73.9275 98.0747 74.0662 98.0693 74.2689 98.112C74.4822 98.144 74.6422 98.2027 74.7489 98.288C74.9729 98.48 75.0795 98.7307 75.0689 99.04C75.0582 99.3493 74.8982 99.7547 74.5889 100.256C74.5142 100.427 74.4342 100.587 74.3489 100.736C74.2742 100.875 74.2369 100.971 74.2369 101.024C74.2369 101.024 74.2795 100.992 74.3649 100.928C74.4502 100.864 74.5515 100.789 74.6689 100.704C74.7862 100.608 74.8875 100.533 74.9729 100.48C75.0262 100.427 75.1435 100.331 75.3249 100.192C75.5062 100.043 75.7035 99.888 75.9169 99.728C76.1302 99.568 76.3009 99.4453 76.4289 99.36C76.5462 99.2747 76.6955 99.1893 76.8769 99.104C77.0582 99.008 77.1702 98.96 77.2129 98.96C77.3195 98.96 77.4475 98.9973 77.5969 99.072C77.7569 99.1467 77.9009 99.2373 78.0289 99.344C78.1675 99.44 78.2475 99.5307 78.2689 99.616C78.2689 99.6587 78.2635 99.7173 78.2529 99.792C78.2422 99.856 78.2369 99.9147 78.2369 99.968C78.2262 100.139 78.2209 100.347 78.2209 100.592C78.2315 100.827 78.2369 101.067 78.2369 101.312C78.2369 101.547 78.2155 101.76 78.1729 101.952C78.1729 101.952 78.1782 101.963 78.1889 101.984C78.1995 101.995 78.2102 102.016 78.2209 102.048C78.2102 102.059 78.2049 102.08 78.2049 102.112C78.2155 102.133 78.2209 102.144 78.2209 102.144C78.2422 102.219 78.2635 102.293 78.2849 102.368C78.3169 102.443 78.3542 102.528 78.3969 102.624C78.4395 102.709 78.4875 102.821 78.5409 102.96C78.5302 103.099 78.4502 103.237 78.3009 103.376C78.1622 103.504 78.0235 103.584 77.8849 103.616ZM80.6846 103.712C80.5566 103.744 80.4126 103.707 80.2526 103.6C80.0926 103.493 79.9486 103.36 79.8206 103.2C79.6926 103.04 79.6126 102.896 79.5806 102.768C79.538 102.544 79.5486 102.272 79.6126 101.952C79.6873 101.621 79.81 101.275 79.9806 100.912C80.1513 100.539 80.3646 100.176 80.6206 99.824C80.8766 99.4613 81.1646 99.136 81.4846 98.848C81.8046 98.56 82.1513 98.336 82.5246 98.176C82.6846 98.0907 82.7966 98.0373 82.8606 98.016C82.9246 97.984 82.9886 97.984 83.0526 98.016C83.1166 98.0373 83.2286 98.0907 83.3886 98.176C83.538 98.2187 83.6873 98.272 83.8366 98.336C83.9966 98.3893 84.1353 98.496 84.2526 98.656C84.338 98.816 84.402 98.976 84.4446 99.136C84.4873 99.296 84.5246 99.4773 84.5566 99.68C84.642 99.9467 84.674 100.123 84.6526 100.208C84.6313 100.283 84.5993 100.341 84.5566 100.384C84.4713 100.491 84.45 100.544 84.4926 100.544C84.4926 100.544 84.4873 100.565 84.4766 100.608C84.4766 100.64 84.4553 100.693 84.4126 100.768C84.338 101.003 84.2793 101.227 84.2366 101.44C84.2046 101.643 84.21 101.824 84.2526 101.984C84.338 102.219 84.45 102.357 84.5886 102.4C84.738 102.443 84.93 102.347 85.1646 102.112C85.282 102.027 85.4153 101.973 85.5646 101.952C85.714 101.92 85.7886 101.947 85.7886 102.032C85.7886 102.032 85.8046 102.048 85.8366 102.08C85.8686 102.101 85.906 102.112 85.9486 102.112C86.002 102.112 86.0233 102.165 86.0126 102.272C86.002 102.368 85.9806 102.48 85.9486 102.608C85.9166 102.736 85.874 102.843 85.8206 102.928C85.6606 103.088 85.5806 103.195 85.5806 103.248C85.5806 103.248 85.5593 103.269 85.5166 103.312C85.4846 103.344 85.426 103.397 85.3406 103.472C85.1486 103.589 84.9033 103.648 84.6046 103.648C84.3166 103.648 84.0926 103.589 83.9326 103.472C83.7726 103.355 83.6126 103.211 83.4526 103.04C83.3033 102.869 83.2073 102.709 83.1646 102.56L83.0846 102.4L82.6206 102.704C82.5033 102.821 82.418 102.912 82.3646 102.976C82.3113 103.029 82.2633 103.077 82.2206 103.12C82.1886 103.163 82.1513 103.2 82.1086 103.232C82.0766 103.264 82.0393 103.28 81.9966 103.28C81.954 103.28 81.9166 103.28 81.8846 103.28C81.8526 103.28 81.8366 103.28 81.8366 103.28C81.8366 103.323 81.762 103.381 81.6126 103.456C81.4633 103.52 81.298 103.579 81.1166 103.632C80.9353 103.685 80.7913 103.712 80.6846 103.712ZM81.0206 102.368C81.0846 102.368 81.1806 102.331 81.3086 102.256C81.4473 102.171 81.5966 102.069 81.7566 101.952C81.9166 101.835 82.0606 101.717 82.1886 101.6C82.3273 101.483 82.4286 101.387 82.4926 101.312C82.5353 101.269 82.5833 101.2 82.6366 101.104C82.7006 101.008 82.77 100.923 82.8446 100.848C83.09 100.571 83.2446 100.352 83.3086 100.192C83.3726 100.021 83.346 99.84 83.2286 99.648C83.186 99.5307 83.1326 99.4667 83.0686 99.456C83.0046 99.4453 82.8713 99.4827 82.6686 99.568C82.5406 99.6427 82.402 99.7653 82.2526 99.936C82.1033 100.107 81.9486 100.299 81.7886 100.512C81.6393 100.725 81.5006 100.944 81.3726 101.168C81.2446 101.392 81.138 101.595 81.0526 101.776C80.978 101.957 80.9406 102.101 80.9406 102.208C80.9406 102.251 80.9513 102.288 80.9726 102.32C81.0046 102.352 81.0206 102.368 81.0206 102.368ZM86.8598 103.616C86.7531 103.552 86.6358 103.461 86.5078 103.344C86.3798 103.216 86.3158 103.093 86.3158 102.976C86.3158 102.816 86.3371 102.619 86.3798 102.384C86.4224 102.139 86.4651 101.931 86.5078 101.76C86.5291 101.568 86.5558 101.376 86.5878 101.184C86.6304 100.981 86.7051 100.795 86.8118 100.624C86.9291 100.219 87.0518 99.8187 87.1798 99.424C87.3078 99.0187 87.4198 98.6027 87.5158 98.176C87.6544 97.7813 87.7771 97.4347 87.8838 97.136C88.0011 96.8267 88.1451 96.4373 88.3158 95.968C88.4118 95.7013 88.4918 95.4187 88.5558 95.12C88.6304 94.8107 88.7424 94.5333 88.8918 94.288C88.9558 94.192 89.0038 94.112 89.0358 94.048C89.0784 93.9733 89.1211 93.904 89.1638 93.84C89.1744 93.7973 89.2278 93.76 89.3238 93.728C89.4304 93.696 89.5371 93.68 89.6438 93.68C89.7611 93.6693 89.8411 93.6907 89.8838 93.744C89.9158 93.7333 89.9691 93.776 90.0438 93.872C90.1184 93.9573 90.1878 94.0587 90.2518 94.176C90.3264 94.2827 90.3584 94.368 90.3478 94.432C90.3478 94.4747 90.3371 94.5333 90.3158 94.608C90.3051 94.6827 90.2784 94.752 90.2358 94.816C90.1931 94.8587 90.1504 94.9227 90.1078 95.008C90.0758 95.0827 90.0224 95.1893 89.9478 95.328C89.9051 95.4667 89.8678 95.6107 89.8358 95.76C89.8038 95.8987 89.7611 96.0267 89.7078 96.144C89.6651 96.272 89.6118 96.3947 89.5477 96.512C89.4944 96.6293 89.4571 96.7253 89.4358 96.8C89.3611 97.0453 89.2704 97.2853 89.1638 97.52C89.0678 97.7547 88.9824 98.0053 88.9078 98.272C88.8331 98.528 88.7584 98.7947 88.6838 99.072C88.6091 99.3387 88.5024 99.5947 88.3638 99.84C88.2891 99.9573 88.2358 100.107 88.2038 100.288C88.1718 100.469 88.1398 100.651 88.1078 100.832C88.0438 101.024 87.9851 101.205 87.9318 101.376C87.8891 101.536 87.8678 101.637 87.8678 101.68C87.8038 101.915 87.7558 102.149 87.7238 102.384C87.7024 102.608 87.6491 102.805 87.5638 102.976C87.5531 103.083 87.5158 103.2 87.4518 103.328C87.3878 103.456 87.3024 103.552 87.1957 103.616C87.0998 103.68 86.9878 103.68 86.8598 103.616ZM93.5465 103.664C93.5038 103.579 93.4078 103.493 93.2585 103.408C93.1198 103.323 93.0505 103.259 93.0505 103.216C93.0505 103.173 93.0238 103.109 92.9705 103.024C92.9278 102.928 92.8852 102.859 92.8425 102.816C92.7892 102.752 92.8052 102.597 92.8905 102.352C92.9758 102.096 93.1038 101.787 93.2745 101.424C93.4452 101.061 93.6318 100.693 93.8345 100.32C93.9198 100.235 94.0052 100.123 94.0905 99.984C94.1758 99.8453 94.2398 99.7547 94.2825 99.712C94.2825 99.6693 94.2985 99.632 94.3305 99.6C94.3625 99.5573 94.3998 99.536 94.4425 99.536L94.5705 99.28C94.5918 99.2373 94.6558 99.152 94.7625 99.024C94.8798 98.896 95.0185 98.7573 95.1785 98.608C95.3385 98.448 95.4985 98.2987 95.6585 98.16C95.8292 98.0213 95.9678 97.92 96.0745 97.856C96.2985 97.7067 96.5278 97.6373 96.7625 97.648C97.0078 97.6587 97.2158 97.7333 97.3865 97.872C97.4185 97.904 97.4878 97.968 97.5945 98.064C97.7118 98.16 97.8398 98.2667 97.9785 98.384C98.1278 98.5013 98.2558 98.608 98.3625 98.704L98.9545 99.232L98.6825 100.032C98.5438 100.459 98.5065 100.832 98.5705 101.152C98.6345 101.472 98.7358 101.749 98.8745 101.984C98.9278 102.101 98.9972 102.192 99.0825 102.256C99.1785 102.32 99.3012 102.363 99.4505 102.384C99.5358 102.395 99.6158 102.427 99.6905 102.48C99.7652 102.533 99.8025 102.619 99.8025 102.736C99.8025 102.992 99.7545 103.179 99.6585 103.296C99.5732 103.403 99.4772 103.467 99.3705 103.488C99.0185 103.531 98.6825 103.493 98.3625 103.376C98.0425 103.259 97.7545 102.955 97.4985 102.464C97.4558 102.4 97.3972 102.283 97.3225 102.112C97.2585 101.931 97.2212 101.813 97.2105 101.76C97.1678 101.813 97.1092 101.883 97.0345 101.968C96.9705 102.043 96.9065 102.112 96.8425 102.176C96.0852 102.944 95.4345 103.445 94.8905 103.68C94.3572 103.904 93.9092 103.899 93.5465 103.664ZM94.4265 102.336C94.5012 102.347 94.6185 102.309 94.7785 102.224C94.9385 102.128 95.1518 101.973 95.4185 101.76C95.7812 101.451 96.0798 101.195 96.3145 100.992C96.5492 100.789 96.7785 100.528 97.0025 100.208L97.3545 99.632C97.2478 99.3867 97.1518 99.2267 97.0665 99.152C96.9812 99.0773 96.8958 99.04 96.8105 99.04C96.6718 99.04 96.5065 99.1307 96.3145 99.312C96.1225 99.4827 95.9038 99.7387 95.6585 100.08C95.4238 100.411 95.1572 100.827 94.8585 101.328C94.7198 101.563 94.6132 101.792 94.5385 102.016C94.4638 102.229 94.4265 102.336 94.4265 102.336ZM102.671 103.856C102.532 103.92 102.372 103.947 102.191 103.936C102.01 103.925 101.764 103.867 101.455 103.76C101.434 103.76 101.359 103.712 101.231 103.616C101.103 103.52 100.975 103.408 100.847 103.28C100.719 103.152 100.634 103.045 100.591 102.96C100.42 102.715 100.367 102.352 100.431 101.872C100.506 101.392 100.676 100.816 100.943 100.144C101.018 99.984 101.13 99.7813 101.279 99.536C101.439 99.2907 101.594 99.0667 101.743 98.864C101.903 98.6507 102.015 98.528 102.079 98.496C102.079 98.496 102.138 98.4747 102.255 98.432C102.372 98.3893 102.522 98.32 102.703 98.224C102.756 98.2027 102.847 98.176 102.975 98.144C103.114 98.112 103.252 98.0853 103.391 98.064C103.54 98.032 103.642 98.0213 103.695 98.032C103.908 98.0427 104.127 98.1227 104.351 98.272C104.586 98.4107 104.778 98.576 104.927 98.768C105.076 98.9493 105.124 99.1093 105.071 99.248C105.071 99.2693 105.039 99.3387 104.975 99.456C104.922 99.5627 104.863 99.6747 104.799 99.792C104.735 99.8987 104.682 99.9787 104.639 100.032C104.586 100.096 104.49 100.123 104.351 100.112C104.223 100.101 104.106 100.059 103.999 99.984C103.892 99.9093 103.834 99.808 103.823 99.68C103.802 99.5947 103.722 99.5147 103.583 99.44C103.455 99.3653 103.391 99.328 103.391 99.328C103.306 99.328 103.194 99.4133 103.055 99.584C102.916 99.7547 102.772 99.9467 102.623 100.16C102.431 100.352 102.292 100.56 102.207 100.784C102.132 100.997 102.079 101.2 102.047 101.392C102.026 101.573 101.999 101.712 101.967 101.808C101.924 101.915 101.924 102.048 101.967 102.208C102.01 102.368 102.063 102.459 102.127 102.48C102.223 102.491 102.351 102.485 102.511 102.464C102.682 102.432 102.858 102.395 103.039 102.352C103.231 102.299 103.423 102.245 103.615 102.192C103.807 102.128 103.978 102.064 104.127 102C104.33 101.872 104.506 101.824 104.655 101.856C104.804 101.877 104.916 101.899 104.991 101.92C105.108 101.963 105.167 102.053 105.167 102.192C105.167 102.331 105.119 102.48 105.023 102.64C104.927 102.789 104.788 102.912 104.607 103.008C104.436 103.093 104.282 103.189 104.143 103.296C104.015 103.392 103.951 103.467 103.951 103.52C103.908 103.52 103.86 103.536 103.807 103.568C103.764 103.589 103.727 103.595 103.695 103.584C103.674 103.584 103.588 103.6 103.439 103.632C103.29 103.664 103.135 103.701 102.975 103.744C102.826 103.787 102.724 103.824 102.671 103.856ZM108.349 104.064C108.039 104.117 107.73 104.091 107.421 103.984C107.122 103.877 106.871 103.707 106.669 103.472C106.477 103.227 106.381 102.933 106.381 102.592C106.349 102.272 106.375 101.893 106.461 101.456C106.557 101.008 106.695 100.56 106.877 100.112C107.069 99.664 107.287 99.2853 107.533 98.976C107.746 98.72 107.959 98.4853 108.173 98.272C108.386 98.0587 108.578 97.9147 108.749 97.84C108.898 97.776 109.079 97.728 109.293 97.696C109.517 97.6533 109.671 97.632 109.757 97.632C109.927 97.6747 110.114 97.744 110.317 97.84C110.53 97.936 110.637 98.048 110.637 98.176C110.637 98.176 110.647 98.192 110.669 98.224C110.701 98.2453 110.717 98.256 110.717 98.256C110.781 98.256 110.85 98.336 110.925 98.496C111.01 98.6453 111.074 98.8213 111.117 99.024C111.159 99.216 111.149 99.3707 111.085 99.488C111.042 99.6907 110.957 99.888 110.829 100.08C110.711 100.272 110.61 100.368 110.525 100.368C110.482 100.368 110.439 100.373 110.397 100.384C110.365 100.384 110.349 100.411 110.349 100.464C110.349 100.517 110.29 100.544 110.173 100.544C110.066 100.544 109.954 100.523 109.837 100.48C109.719 100.437 109.645 100.373 109.613 100.288C109.613 100.235 109.623 100.165 109.645 100.08C109.666 99.9947 109.698 99.8507 109.741 99.648C109.805 99.3493 109.81 99.152 109.757 99.056C109.703 98.9493 109.57 98.9387 109.357 99.024C109.09 99.1733 108.871 99.3493 108.701 99.552C108.53 99.744 108.375 100.016 108.237 100.368C108.109 100.72 107.965 101.211 107.805 101.84C107.741 102.085 107.73 102.277 107.773 102.416C107.826 102.555 107.869 102.629 107.901 102.64C108.05 102.683 108.21 102.693 108.381 102.672C108.562 102.64 108.711 102.592 108.829 102.528C108.999 102.443 109.149 102.352 109.277 102.256C109.415 102.149 109.565 102.037 109.725 101.92C109.778 101.888 109.826 101.829 109.869 101.744C109.911 101.648 109.975 101.579 110.061 101.536C110.146 101.408 110.253 101.344 110.381 101.344C110.519 101.333 110.653 101.328 110.781 101.328C110.866 101.349 110.957 101.403 111.053 101.488C111.149 101.573 111.218 101.659 111.261 101.744C111.314 101.819 111.309 101.872 111.245 101.904C111.202 101.904 111.175 101.92 111.165 101.952C111.165 101.973 111.165 101.984 111.165 101.984C111.186 102.027 111.138 102.123 111.021 102.272C110.914 102.421 110.775 102.581 110.605 102.752C110.434 102.923 110.269 103.072 110.109 103.2C109.959 103.317 109.853 103.376 109.789 103.376C109.682 103.376 109.629 103.408 109.629 103.472C109.629 103.493 109.549 103.547 109.389 103.632C109.239 103.717 109.063 103.803 108.861 103.888C108.669 103.973 108.498 104.032 108.349 104.064ZM113.761 103.872C113.537 103.915 113.366 103.904 113.249 103.84C113.142 103.765 113.03 103.675 112.913 103.568C112.742 103.483 112.587 103.365 112.449 103.216C112.31 103.056 112.203 102.891 112.129 102.72C112.054 102.549 112.022 102.416 112.033 102.32C112.065 101.947 112.15 101.541 112.289 101.104C112.438 100.667 112.625 100.24 112.849 99.824C113.083 99.408 113.345 99.04 113.633 98.72C113.931 98.3893 114.251 98.1493 114.593 98C114.806 97.9147 115.035 97.8827 115.281 97.904C115.526 97.9253 115.691 98.0267 115.777 98.208C115.937 98.5173 115.899 98.7147 115.665 98.8C115.633 98.8 115.595 98.816 115.553 98.848C115.51 98.8693 115.489 98.9013 115.489 98.944C115.531 98.9653 115.649 98.9707 115.841 98.96C116.033 98.9387 116.225 98.9067 116.417 98.864C116.619 98.8107 116.753 98.7573 116.817 98.704C116.881 98.672 116.929 98.656 116.961 98.656C116.993 98.656 117.073 98.6667 117.201 98.688C117.382 98.7413 117.473 98.8053 117.473 98.88C117.473 98.9227 117.489 98.992 117.521 99.088C117.553 99.1733 117.59 99.216 117.633 99.216C117.707 99.2267 117.723 99.3013 117.681 99.44C117.649 99.5787 117.526 99.7227 117.313 99.872C117.11 100 116.982 100.085 116.929 100.128C116.886 100.16 116.881 100.235 116.913 100.352C116.998 100.555 116.993 100.8 116.897 101.088C116.801 101.376 116.641 101.675 116.417 101.984C116.193 102.293 115.926 102.587 115.617 102.864C115.318 103.131 115.003 103.36 114.673 103.552C114.353 103.733 114.049 103.84 113.761 103.872ZM113.809 102.528C113.851 102.528 113.926 102.507 114.033 102.464C114.139 102.411 114.225 102.368 114.289 102.336C114.331 102.293 114.385 102.245 114.449 102.192C114.523 102.128 114.582 102.091 114.625 102.08C114.667 102.08 114.694 102.064 114.705 102.032C114.715 101.989 114.753 101.909 114.817 101.792C114.881 101.664 115.009 101.477 115.201 101.232C115.414 100.997 115.553 100.811 115.617 100.672C115.681 100.523 115.686 100.363 115.633 100.192C115.622 100.149 115.59 100.123 115.537 100.112C115.494 100.101 115.435 100.075 115.361 100.032C115.254 100.032 115.179 100.059 115.137 100.112C115.105 100.155 115.03 100.128 114.913 100.032L114.657 99.712L114.385 99.984C114.214 100.155 114.059 100.368 113.921 100.624C113.793 100.88 113.691 101.141 113.617 101.408C113.542 101.675 113.494 101.909 113.473 102.112C113.462 102.272 113.489 102.379 113.553 102.432C113.617 102.485 113.702 102.517 113.809 102.528ZM119.158 103.44C118.955 103.259 118.779 103.072 118.63 102.88C118.48 102.677 118.379 102.368 118.326 101.952C118.304 101.76 118.326 101.493 118.39 101.152C118.454 100.811 118.55 100.453 118.678 100.08C118.806 99.696 118.944 99.344 119.094 99.024C119.243 98.704 119.392 98.4693 119.542 98.32C119.67 98.16 119.83 98.032 120.022 97.936C120.224 97.84 120.432 97.84 120.646 97.936C120.763 98.0747 120.822 98.2667 120.822 98.512C120.832 98.7467 120.774 98.9653 120.646 99.168C120.432 99.456 120.246 99.8187 120.086 100.256C119.936 100.683 119.835 101.067 119.782 101.408C119.707 101.653 119.675 101.845 119.686 101.984C119.696 102.112 119.771 102.192 119.91 102.224C120.112 102.277 120.32 102.219 120.534 102.048C120.758 101.877 120.971 101.627 121.174 101.296C121.387 100.965 121.574 100.587 121.734 100.16C121.798 100.011 121.846 99.8347 121.878 99.632C121.92 99.4293 121.963 99.28 122.006 99.184C122.059 98.9707 122.15 98.8053 122.278 98.688C122.416 98.56 122.56 98.48 122.71 98.448C122.859 98.416 122.971 98.432 123.046 98.496C123.142 98.5387 123.243 98.608 123.35 98.704C123.456 98.8 123.499 98.9707 123.478 99.216C123.478 99.6107 123.392 99.9467 123.222 100.224C123.051 100.501 122.907 100.795 122.79 101.104C122.694 101.328 122.539 101.589 122.326 101.888C122.112 102.187 121.883 102.459 121.638 102.704C121.403 102.949 121.184 103.115 120.982 103.2C120.683 103.392 120.379 103.509 120.07 103.552C119.76 103.584 119.456 103.547 119.158 103.44ZM129.063 103.936C128.903 103.936 128.749 103.888 128.599 103.792C128.45 103.685 128.327 103.541 128.231 103.36C128.135 103.168 128.087 102.944 128.087 102.688C128.087 102.528 128.114 102.304 128.167 102.016C128.231 101.717 128.322 101.344 128.439 100.896C128.461 100.747 128.477 100.651 128.487 100.608C128.509 100.565 128.519 100.523 128.519 100.48C128.519 100.459 128.514 100.443 128.503 100.432C128.503 100.411 128.493 100.4 128.471 100.4C128.386 100.4 128.269 100.459 128.119 100.576C127.981 100.683 127.821 100.811 127.639 100.96C127.607 100.981 127.57 101.008 127.527 101.04C127.495 101.072 127.458 101.104 127.415 101.136C127.383 101.168 127.346 101.2 127.303 101.232C127.197 101.296 127.031 101.419 126.807 101.6C126.594 101.781 126.37 101.973 126.135 102.176C125.911 102.379 125.714 102.549 125.543 102.688C125.458 102.752 125.383 102.805 125.319 102.848C125.266 102.891 125.229 102.912 125.207 102.912C125.186 102.912 125.101 102.885 124.951 102.832C124.813 102.768 124.674 102.683 124.535 102.576C124.407 102.459 124.343 102.325 124.343 102.176C124.343 102.08 124.381 101.888 124.455 101.6C124.541 101.312 124.658 100.971 124.807 100.576C124.957 100.181 125.127 99.7813 125.319 99.376C125.362 99.28 125.394 99.152 125.415 98.992C125.437 98.832 125.458 98.6773 125.479 98.528C125.511 98.368 125.565 98.2507 125.639 98.176C125.671 98.1227 125.709 98.0853 125.751 98.064C125.805 98.032 125.858 98.016 125.911 98.016C126.018 98.016 126.119 98.0427 126.215 98.096C126.311 98.1387 126.402 98.2133 126.487 98.32C126.647 98.4907 126.733 98.6933 126.743 98.928C126.765 99.152 126.749 99.3707 126.695 99.584C126.642 99.7973 126.583 99.9733 126.519 100.112C126.455 100.24 126.423 100.293 126.423 100.272C126.466 100.251 126.525 100.197 126.599 100.112C126.685 100.027 126.829 99.9253 127.031 99.808C127.309 99.5947 127.522 99.4453 127.671 99.36C127.821 99.264 127.933 99.1947 128.007 99.152C128.093 99.1093 128.167 99.0613 128.231 99.008C128.285 98.9653 128.322 98.9387 128.343 98.928C128.375 98.9173 128.391 98.912 128.391 98.912C128.423 98.912 128.477 98.8907 128.551 98.848C128.637 98.8053 128.717 98.784 128.791 98.784C128.898 98.784 129.01 98.8107 129.127 98.864C129.245 98.9067 129.346 98.9707 129.431 99.056C129.517 99.1307 129.559 99.2107 129.559 99.296C129.559 99.328 129.57 99.3547 129.591 99.376C129.613 99.3973 129.634 99.424 129.655 99.456C129.709 99.52 129.767 99.6107 129.831 99.728C129.906 99.8347 129.943 100.011 129.943 100.256C129.943 100.427 129.906 100.677 129.831 101.008C129.757 101.339 129.677 101.664 129.591 101.984C129.506 102.315 129.463 102.581 129.463 102.784C129.474 102.976 129.495 103.125 129.527 103.232C129.559 103.328 129.575 103.408 129.575 103.472C129.575 103.557 129.533 103.659 129.447 103.776C129.362 103.883 129.234 103.936 129.063 103.936ZM132.791 104.96C132.268 104.949 131.932 104.8 131.783 104.512C131.644 104.235 131.607 103.883 131.671 103.456C131.735 103.253 131.772 103.072 131.783 102.912C131.804 102.741 131.852 102.635 131.927 102.592C131.927 102.592 131.932 102.576 131.943 102.544C131.964 102.512 131.959 102.48 131.927 102.448C131.927 102.309 131.975 102.117 132.071 101.872C132.092 101.808 132.119 101.733 132.151 101.648C132.194 101.552 132.215 101.504 132.215 101.504C132.162 101.419 132.162 101.349 132.215 101.296C132.268 101.243 132.322 101.195 132.375 101.152C132.439 101.099 132.444 101.04 132.391 100.976C132.37 100.933 132.396 100.837 132.471 100.688C132.546 100.528 132.631 100.363 132.727 100.192C132.823 100.021 132.887 99.888 132.919 99.792C132.919 99.7707 132.946 99.696 132.999 99.568C133.052 99.44 133.116 99.2907 133.191 99.12C133.266 98.9493 133.335 98.7947 133.399 98.656C133.474 98.5173 133.522 98.4267 133.543 98.384C133.65 98.3307 133.607 98.2933 133.415 98.272C133.223 98.2507 133.02 98.2453 132.807 98.256C132.476 98.2453 132.21 98.2293 132.007 98.208C131.815 98.1867 131.655 98.1387 131.527 98.064C131.399 97.9147 131.383 97.7387 131.479 97.536C131.575 97.3227 131.73 97.2107 131.943 97.2C132.082 97.1893 132.188 97.184 132.263 97.184C132.348 97.184 132.455 97.1787 132.583 97.168C132.722 97.1467 132.935 97.12 133.223 97.088L134.039 97.024L134.087 96.752C134.172 96.6133 134.231 96.5227 134.263 96.48C134.295 96.4373 134.316 96.3947 134.327 96.352C134.338 96.2987 134.354 96.208 134.375 96.08C134.375 96.08 134.423 95.9947 134.519 95.824C134.615 95.6427 134.674 95.456 134.695 95.264C134.823 95.0507 134.935 94.8587 135.031 94.688C135.127 94.5067 135.186 94.3947 135.207 94.352C135.388 94.0853 135.564 93.9413 135.735 93.92C135.916 93.8987 136.087 93.9413 136.247 94.048C136.343 94.1013 136.434 94.1707 136.519 94.256C136.604 94.3307 136.658 94.432 136.679 94.56C136.7 94.6773 136.652 94.832 136.535 95.024C136.514 95.0667 136.482 95.1467 136.439 95.264C136.396 95.3707 136.364 95.4613 136.343 95.536C136.279 95.6107 136.199 95.7333 136.103 95.904C136.018 96.064 135.959 96.2293 135.927 96.4C135.842 96.5813 135.788 96.6933 135.767 96.736C135.746 96.7787 135.714 96.8 135.671 96.8C135.692 96.9067 135.756 96.96 135.863 96.96C135.97 96.9493 136.146 96.9387 136.391 96.928C136.594 96.9067 136.732 96.8853 136.807 96.864C136.892 96.832 136.988 96.8427 137.095 96.896C137.148 96.9707 137.175 97.0827 137.175 97.232C137.186 97.3707 137.17 97.5093 137.127 97.648C137.084 97.776 137.026 97.856 136.951 97.888C136.898 97.888 136.786 97.92 136.615 97.984C136.455 98.0373 136.252 98.0693 136.007 98.08L135.159 98.16L134.887 98.704C134.812 98.8427 134.748 98.9707 134.695 99.088C134.642 99.1947 134.604 99.2587 134.583 99.28C134.583 99.344 134.546 99.44 134.471 99.568C134.407 99.696 134.338 99.8347 134.263 99.984C134.199 100.165 134.124 100.331 134.039 100.48C133.964 100.629 133.927 100.704 133.927 100.704C133.884 100.704 133.863 100.736 133.863 100.8C133.916 100.928 133.9 101.024 133.815 101.088C133.762 101.12 133.714 101.168 133.671 101.232C133.639 101.285 133.623 101.312 133.623 101.312C133.666 101.355 133.671 101.408 133.639 101.472C133.618 101.536 133.586 101.605 133.543 101.68C133.543 101.765 133.516 101.888 133.463 102.048C133.42 102.208 133.372 102.357 133.319 102.496C133.33 102.688 133.34 102.811 133.351 102.864C133.362 102.917 133.388 102.939 133.431 102.928C133.484 102.939 133.559 102.939 133.655 102.928C133.751 102.917 133.82 102.912 133.863 102.912C134.023 102.837 133.948 103.211 133.639 104.032C133.468 104.299 133.298 104.517 133.127 104.688C132.956 104.869 132.844 104.96 132.791 104.96Z" fill="#23262F"/><path d="M57.1823 61.0175C23.2049 55.704 13.101 30.2762 14.2619 6.1364" stroke="black" stroke-width="1.70103" stroke-miterlimit="10" stroke-linecap="round" stroke-linejoin="round"/><path d="M19.2964 7.19048L15.2317 1.03456L8.78995 7.16186" stroke="black" stroke-width="1.70103" stroke-miterlimit="10" stroke-linecap="round" stroke-linejoin="round"/></svg>